<svg width="222" height="100" viewBox="0 0 222 100" fill="none" xmlns="http://www.w3.org/2000/svg">
<g clip-path="url(#clip0)">
<path fill-rule="evenodd" clip-rule="evenodd" d="M175.35 14.3735C162.109 7.98967 145.232 4.16704 126.901 4.16704C94.2572 4.16704 66.3206 16.2465 55.146 33.3337H102.676C102.868 33.3337 103.021 33.4102 103.136 33.5248C106.312 36.43 109.488 39.3352 112.626 42.2787L122.117 33.5248C122.117 33.5248 122.385 33.3337 122.576 33.3337H157.019C157.21 33.3337 157.44 33.4484 157.555 33.5631L163.601 39.1059L169.724 33.4484C169.839 33.3337 169.992 33.2572 170.183 33.2572H198.885H215.609C215.992 33.2572 216.604 33.1808 216.834 33.5631C217.637 34.8245 218.403 36.1242 219.015 37.4239C224.22 48.1655 222.344 59.4423 214.805 69.0753C210.022 75.1915 203.057 80.6579 194.37 85.245C185.682 89.8704 175.273 93.5783 163.754 96.1013C152.656 98.5478 140.486 99.8857 127.743 99.8857C127.131 99.8857 126.518 99.8857 125.944 99.8857C117.525 99.8857 109.335 99.3123 101.567 98.2037C93.3005 97.0187 85.1874 95.2221 77.3039 92.7374C77.036 92.6609 76.8447 92.4316 76.8447 92.164C76.8447 91.8199 77.1508 91.5906 77.4953 91.5906H94.7547C104.513 94.2664 115.42 95.7572 126.863 95.7572C169.38 95.7572 203.899 75.2297 203.899 49.9239C203.899 47.401 203.554 44.9163 202.904 42.508C194.255 50.4591 185.568 58.4484 176.919 66.3994C176.804 66.5141 176.651 66.5906 176.46 66.5906H142.017C141.864 66.5906 141.673 66.5141 141.558 66.3994C138.496 63.4178 135.205 60.5508 132.029 57.6456L122.5 66.5141C122.5 66.5141 122.232 66.7053 122.041 66.7053H87.5984C87.4453 66.7053 87.2539 66.6288 87.1391 66.5141C84.0776 63.5325 80.8247 60.7037 77.6483 57.7985C76.9595 58.4101 77.6101 57.7603 68.1193 66.5141C68.1193 66.5141 67.8514 66.7053 67.6601 66.7053H10.2179H1.53077C1.37769 66.7053 1.18635 66.6288 1.07154 66.5141C0.803655 66.2848 0.803655 65.9025 1.07154 65.6731C3.67385 63.3031 6.23789 60.8949 8.8402 58.5248C8.95501 58.4102 9.10808 58.3337 9.29943 58.3337C19.9766 58.3337 30.3858 58.3337 40.7568 58.3337L49.6352 50.1533C49.6352 50.1533 49.9031 49.9621 50.0945 49.9621H84.6133C84.7664 49.9621 84.9578 50.0386 85.0726 50.1533C85.3405 50.3826 85.3405 50.7649 85.0726 50.9942C82.5085 53.3261 80.863 54.8551 79.7914 55.849C82.8147 58.6013 85.7997 61.3918 88.823 64.1441L110.522 44.19C107.498 41.4377 104.513 38.6472 101.49 35.8949L101.452 35.8566C99.4236 37.7297 97.357 39.6028 95.3287 41.4759C95.3287 41.4759 95.0609 41.667 94.8695 41.667H33.8683C33.7918 41.667 33.7535 41.667 33.677 41.6288C33.3325 41.5141 33.1412 41.2083 33.256 40.9025C37.2743 29.2817 52.5437 18.6548 59.3174 14.641C68.0045 10.0157 78.4137 6.30771 89.9328 3.78478C101.031 1.33829 113.2 0.000372653 125.944 0.000372653C126.25 0.000372653 126.556 0.000372653 126.863 0.000372653C143.051 -0.0760799 159.391 1.94991 174.814 6.65175C181.664 8.75419 187.94 11.2771 193.566 14.1823C199.192 17.0875 204.128 20.375 208.223 23.93C208.376 24.0447 208.453 24.1976 208.453 24.3887C208.453 24.7328 208.147 24.9621 207.802 24.9621H191.729C191.576 24.9621 191.385 24.8857 191.27 24.771C188.093 21.9423 184.611 19.4576 180.899 17.2787C166.357 23.0508 150.016 25.4973 134.21 24.8475C127.169 24.5799 120.357 23.6624 113.928 22.1716C107.575 20.6808 101.605 18.6166 96.2855 16.0172C95.4818 15.6349 96.4386 14.4881 97.2422 14.8322C102.294 17.0493 107.881 18.8077 113.813 19.9927C119.783 21.216 126.097 21.904 132.565 22.0187C147.184 22.3628 161.994 19.8398 175.35 14.3735ZM6.58231 80.1609C6.58231 80.7725 6.23789 81.1166 5.54904 81.1166H0V83.2955H6.31443C7.42424 83.2955 8.22789 83.0661 8.76366 82.6074C9.29943 82.1487 9.52905 81.4224 9.52905 80.505V80.3903C9.52905 79.9698 9.49078 79.5875 9.37597 79.2817C9.06982 78.4025 8.45751 77.8291 7.57731 77.5998C8.07481 77.4468 8.45751 77.1793 8.76366 76.7588C9.06982 76.3765 9.22289 75.8413 9.22289 75.2297C9.22289 74.2741 8.95501 73.586 8.45751 73.1273C7.96001 72.6686 7.15635 72.4392 6.08481 72.4392H0V74.6181H5.28116C5.93174 74.6181 6.27616 74.9239 6.27616 75.5738V75.8796C6.27616 76.4912 5.93174 76.8352 5.28116 76.8352H1.64558V79.0141H5.58731C6.23789 79.0141 6.58231 79.3199 6.58231 79.9698V80.0462V80.1609ZM16.3027 78.0585V77.7527C16.3027 77.3322 16.0731 77.141 15.6521 77.141H11.2894V75.0386H16.5706C17.4125 75.0386 18.0248 75.2679 18.5223 75.6884C18.9816 76.1472 19.2112 76.7588 19.2112 77.5233V77.5998V79.2817V83.2955H16.6471L16.4941 82.5309C15.9966 82.8368 15.4608 83.1043 14.925 83.2572C14.3892 83.4101 13.93 83.4866 13.5473 83.4866H12.9733C12.2462 83.4866 11.6339 83.2572 11.1746 82.8368C10.7154 82.4163 10.4858 81.8429 10.4858 81.1166V80.4285C10.4858 79.7022 10.7154 79.167 11.1746 78.7083C11.6339 78.2878 12.2079 78.0585 12.9733 78.0585H16.3027ZM14.3127 81.2695C14.8867 81.2695 15.5373 81.1548 16.3027 80.9637V80.008H13.93C13.7769 80.008 13.6239 80.0462 13.5091 80.1609C13.3942 80.2756 13.356 80.3903 13.356 80.5432V80.6961C13.356 80.849 13.3942 81.0019 13.5091 81.0783C13.6239 81.193 13.7387 81.2312 13.93 81.2312H14.3127V81.2695ZM59.9297 78.0585V77.7527C59.9297 77.3322 59.7001 77.141 59.2791 77.141H54.9164V75.0386H60.1976C61.0012 75.0386 61.6518 75.2679 62.1493 75.6884C62.6085 76.1472 62.8381 76.7588 62.8381 77.5233V77.5998V79.2817V83.2955H60.2741L60.121 82.5309C59.6235 82.8368 59.0877 83.1043 58.552 83.2572C58.0162 83.4101 57.557 83.4866 57.1743 83.4866H56.6002C55.8349 83.4866 55.2608 83.2572 54.8016 82.8368C54.3424 82.4163 54.1127 81.8429 54.1127 81.1166V80.4285C54.1127 79.7022 54.3424 79.167 54.8016 78.7083C55.2608 78.2878 55.8349 78.0585 56.6002 78.0585H59.9297ZM57.9397 81.2695C58.5137 81.2695 59.1643 81.1548 59.9297 80.9637V80.008H57.557C57.4039 80.008 57.2508 80.0462 57.136 80.1609C57.0212 80.2756 56.9829 80.3903 56.9829 80.5432V80.6961C56.9829 80.849 57.0212 81.0019 57.136 81.0783C57.2508 81.193 57.3656 81.2312 57.557 81.2312H57.9397V81.2695ZM136.124 78.0585V77.7527C136.124 77.3322 135.894 77.141 135.473 77.141H131.111V75.0386H136.392C137.234 75.0386 137.846 75.2679 138.343 75.6884C138.803 76.1472 139.032 76.7588 139.032 77.5233V77.5998V79.2817V83.2955H136.468L136.315 82.5309C135.818 82.8368 135.282 83.1043 134.746 83.2572C134.21 83.4101 133.751 83.4866 133.368 83.4866H132.794C132.067 83.4866 131.455 83.2572 130.996 82.8368C130.536 82.4163 130.307 81.8429 130.307 81.1166V80.4285C130.307 79.7022 130.536 79.167 130.996 78.7083C131.455 78.2878 132.029 78.0585 132.794 78.0585H136.124ZM153.575 79.2435V80.5432C153.575 80.9637 153.804 81.1548 154.225 81.1548H158.588V83.2572H153.307C152.503 83.2572 151.852 83.0279 151.355 82.6074C150.896 82.1487 150.666 81.5371 150.666 80.7725V79.2435V77.4851C150.666 76.7205 150.896 76.1089 151.355 75.6502C151.814 75.1915 152.465 75.0004 153.307 75.0004H158.588V77.1028H154.225C153.804 77.1028 153.575 77.2939 153.575 77.7144V79.2435ZM31.4191 83.2955H20.6654V75.0004H23.5356V81.193H25.4108V75.0004H28.3193V81.193H30.1945V75.0004H33.0646V81.193H34.2893V85.1686H31.5721L31.4191 83.2955ZM41.1395 75.0004H44.201V83.2955H41.3308V78.7465L38.5372 83.2955H35.4756V75.0004H38.3458V79.5493L41.1395 75.0004ZM50.7833 77.1028V83.2955H47.9131V77.1028H45.196V75.0004H53.5004V77.1028H50.7833ZM74.472 83.2955H71.5253V76.5676L67.5835 83.2955H64.4454V72.3245H67.3922V79.0524L71.3339 72.3245H74.472V83.2955ZM82.1258 78.0585V75.0004H84.996V83.2955H82.1258V80.1609H79.1791V83.2955H76.3089V75.0004H79.1791V78.0585H82.1258ZM98.2755 80.7725C98.2755 81.5371 98.0459 82.1869 97.5866 82.6074C97.1274 83.0661 96.4768 83.2572 95.6349 83.2572H93.8362V85.9331H90.966V83.2572H89.1674C88.3637 83.2572 87.7132 83.0279 87.2157 82.6074C86.7564 82.1487 86.5268 81.5371 86.5268 80.7725V77.4851C86.5268 76.7205 86.7564 76.1089 87.2157 75.6502C87.6749 75.1915 88.3255 75.0004 89.1674 75.0004H90.966V72.3245H93.8362V75.0004H95.6349C96.4386 75.0004 97.0891 75.2297 97.5866 75.6502C98.0459 76.1089 98.2755 76.7205 98.2755 77.4851V80.7725ZM89.3587 80.5432C89.3587 80.9637 89.5883 81.1548 90.0093 81.1548H91.1574V77.1028H90.0093C89.5883 77.1028 89.3587 77.2939 89.3587 77.7144V80.5432ZM95.367 77.7527C95.367 77.3322 95.1374 77.141 94.7164 77.141H93.7214V81.193H94.7164C95.1374 81.193 95.367 81.0019 95.367 80.5814V77.7527ZM108.646 80.7725C108.646 81.5371 108.417 82.1869 107.958 82.6074C107.498 83.0661 106.848 83.2572 106.006 83.2572H102.217C101.375 83.2572 100.763 83.0279 100.265 82.6074C99.8062 82.1487 99.5766 81.5371 99.5766 80.7725V77.3322C99.5766 76.5676 99.8062 75.9178 100.265 75.4973C100.725 75.0386 101.375 74.8475 102.217 74.8475H106.006C106.848 74.8475 107.46 75.0768 107.958 75.4973C108.417 75.956 108.646 76.5676 108.646 77.3322V80.7725ZM105.738 77.5615C105.738 77.141 105.508 76.9499 105.087 76.9499H103.097C102.676 76.9499 102.447 77.141 102.447 77.5615V80.5432C102.447 80.9637 102.676 81.1548 103.097 81.1548H105.087C105.508 81.1548 105.738 80.9637 105.738 80.5432V77.5615ZM115.879 83.2955H112.894V74.5416H109.45V72.3627H119.324V74.5416H115.879V83.2955ZM125.179 77.1028C124.605 77.1028 123.954 77.2175 123.189 77.4086V81.1548H125.638C126.059 81.1548 126.289 80.9637 126.289 80.5432V77.638C126.289 77.4851 126.25 77.3704 126.136 77.2557C126.021 77.141 125.906 77.1028 125.715 77.1028H125.179ZM123.189 83.2955V85.9713H120.319V75.0004H122.883L123.036 75.7649C123.533 75.4591 124.069 75.1915 124.605 75.0386C125.141 74.8857 125.6 74.8092 125.982 74.8092H126.71C127.475 74.8092 128.049 75.0386 128.508 75.4591C128.967 75.8796 129.197 76.453 129.197 77.1793V80.7725C129.197 81.5371 128.967 82.1869 128.508 82.6074C128.049 83.0661 127.398 83.2572 126.556 83.2572H123.189V83.2955ZM134.134 81.2695C134.708 81.2695 135.358 81.1548 136.124 80.9637V80.008H133.751C133.598 80.008 133.445 80.0462 133.33 80.1609C133.215 80.2756 133.177 80.3903 133.177 80.5432V80.6961C133.177 80.849 133.215 81.0019 133.33 81.0783C133.445 81.193 133.56 81.2312 133.751 81.2312H134.134V81.2695ZM146.342 78.0585V75.0004H149.212V83.2955H146.342V80.1609H143.395V83.2955H140.525V75.0004H143.395V78.0585H146.342ZM143.204 64.1441L167.658 41.667H162.415C162.185 41.667 161.994 41.5524 161.841 41.3995L155.832 35.8566L134.134 55.8108L143.204 64.1441Z" fill="white"/>
</g>
<defs>
<clipPath id="clip0">
<rect width="222" height="100" fill="white"/>
</clipPath>
</defs>
</svg>
